<svg width="142" height="142" viewBox="0 0 142 142" fill="none" xmlns="http://www.w3.org/2000/svg">
<g filter="url(#filter0_d_8403_3947)">
<path d="M40 63C40 45.8792 53.8792 32 71 32C88.1208 32 102 45.8792 102 63C102 80.1208 88.1208 94 71 94C53.8792 94 40 80.1208 40 63Z" fill="white" fill-opacity="0.65" shape-rendering="crispEdges"/>
<path d="M40 63C40 45.8792 53.8792 32 71 32C88.1208 32 102 45.8792 102 63C102 80.1208 88.1208 94 71 94C53.8792 94 40 80.1208 40 63Z" fill="#DDDDDD" style="mix-blend-mode:color-burn" shape-rendering="crispEdges"/>
<path d="M40 63C40 45.8792 53.8792 32 71 32C88.1208 32 102 45.8792 102 63C102 80.1208 88.1208 94 71 94C53.8792 94 40 80.1208 40 63Z" fill="#F7F7F7" style="mix-blend-mode:darken" shape-rendering="crispEdges"/>
</g>
<defs>
<filter id="filter0_d_8403_3947" x="0" y="0" width="142" height="142" filterUnits="userSpaceOnUse" color-interpolation-filters="sRGB">
<feFlood flood-opacity="0" result="BackgroundImageFix"/>
<feColorMatrix in="SourceAlpha" type="matrix" values="0 0 0 0 0 0 0 0 0 0 0 0 0 0 0 0 0 0 127 0" result="hardAlpha"/>
<feOffset dy="8"/>
<feGaussianBlur stdDeviation="20"/>
<feComposite in2="hardAlpha" operator="out"/>
<feColorMatrix type="matrix" values="0 0 0 0 0 0 0 0 0 0 0 0 0 0 0 0 0 0 0.12 0"/>
<feBlend mode="normal" in2="BackgroundImageFix" result="effect1_dropShadow_8403_3947"/>
<feBlend mode="normal" in="SourceGraphic" in2="effect1_dropShadow_8403_3947" result="shape"/>
</filter>
</defs>
</svg>
