<svg width="124" height="124" viewBox="0 0 124 124" fill="none" xmlns="http://www.w3.org/2000/svg">
<g filter="url(#filter0_d_8403_7032)">
<path d="M40 54C40 41.8497 49.8497 32 62 32C74.1503 32 84 41.8497 84 54C84 66.1503 74.1503 76 62 76C49.8497 76 40 66.1503 40 54Z" fill="white" fill-opacity="0.65" shape-rendering="crispEdges"/>
<path d="M40 54C40 41.8497 49.8497 32 62 32C74.1503 32 84 41.8497 84 54C84 66.1503 74.1503 76 62 76C49.8497 76 40 66.1503 40 54Z" fill="#DDDDDD" style="mix-blend-mode:color-burn" shape-rendering="crispEdges"/>
<path d="M40 54C40 41.8497 49.8497 32 62 32C74.1503 32 84 41.8497 84 54C84 66.1503 74.1503 76 62 76C49.8497 76 40 66.1503 40 54Z" fill="#F7F7F7" style="mix-blend-mode:darken" shape-rendering="crispEdges"/>
</g>
<defs>
<filter id="filter0_d_8403_7032" x="0" y="0" width="124" height="124" filterUnits="userSpaceOnUse" color-interpolation-filters="sRGB">
<feFlood flood-opacity="0" result="BackgroundImageFix"/>
<feColorMatrix in="SourceAlpha" type="matrix" values="0 0 0 0 0 0 0 0 0 0 0 0 0 0 0 0 0 0 127 0" result="hardAlpha"/>
<feOffset dy="8"/>
<feGaussianBlur stdDeviation="20"/>
<feComposite in2="hardAlpha" operator="out"/>
<feColorMatrix type="matrix" values="0 0 0 0 0 0 0 0 0 0 0 0 0 0 0 0 0 0 0.12 0"/>
<feBlend mode="normal" in2="BackgroundImageFix" result="effect1_dropShadow_8403_7032"/>
<feBlend mode="normal" in="SourceGraphic" in2="effect1_dropShadow_8403_7032" result="shape"/>
</filter>
</defs>
</svg>
